<?xml version="1.0" encoding="UTF-8"?>
<svg version="1.1" xmlns="http://www.w3.org/2000/svg" width="315" height="68">
<path d="M0 0 C103.95 0 207.9 0 315 0 C315 22.44 315 44.88 315 68 C211.05 68 107.1 68 0 68 C0 45.56 0 23.12 0 0 Z " fill="#FCFCFC" transform="translate(0,0)"/>
<path d="M0 0 C3.3 0 6.6 0 10 0 C10.33 4.95 10.66 9.9 11 15 C11.99 14.34 12.98 13.68 14 13 C20.05121941 12.06766397 25.47882267 12.01175561 30.5625 15.6875 C34.36659306 18.85348712 36.7361388 22.12206897 37.43359375 27.0859375 C37.44734345 38.66318786 37.44734345 38.66318786 33 44 C28.16199115 48.35866696 23.74916108 49.69410347 17.27734375 49.375 C14.34863931 48.89274335 12.30970535 47.84776428 10 46 C9.67 46.66 9.34 47.32 9 48 C6.03 48 3.06 48 0 48 C0 32.16 0 16.32 0 0 Z " fill="#0A0B1B" transform="translate(198,8)"/>
<path d="M0 0 C3.3 0 6.6 0 10 0 C10.33 8.25 10.66 16.5 11 25 C12.44375 23.39125 13.8875 21.7825 15.375 20.125 C21.75255945 13.01857662 21.75255945 13.01857662 24.6015625 12.8046875 C25.59929687 12.82789063 26.59703125 12.85109375 27.625 12.875 C29.12933594 12.90207031 29.12933594 12.90207031 30.6640625 12.9296875 C31.43492188 12.95289063 32.20578125 12.97609375 33 13 C31.42219077 16.71045247 29.09296752 19.29906384 26.375 22.25 C25.55773437 23.14203125 24.74046875 24.0340625 23.8984375 24.953125 C23.27195312 25.62859375 22.64546875 26.3040625 22 27 C23.63234149 31.6279572 26.06370065 35.59589261 28.625 39.75 C33 46.87615031 33 46.87615031 33 48 C29.07730584 48.84366768 25.88240803 49.12452448 22 48 C18.54710348 44.02084553 16.26892989 39.73289673 14 35 C13.01 35.66 12.02 36.32 11 37 C10.41651248 39.6556728 10.41651248 39.6556728 10.3125 42.625 C10.24675781 43.62789062 10.18101563 44.63078125 10.11328125 45.6640625 C10.07589844 46.43492188 10.03851563 47.20578125 10 48 C6.7 48 3.4 48 0 48 C0 32.16 0 16.32 0 0 Z " fill="#0C0C1D" transform="translate(86,8)"/>
<path d="M0 0 C3.91874032 2.07659744 5.92302807 4.3567713 7.828125 8.28125 C8.16870117 11.2355957 8.16870117 11.2355957 8.12109375 14.45703125 C8.1065918 16.19243164 8.1065918 16.19243164 8.09179688 17.96289062 C8.06666016 19.16107422 8.04152344 20.35925781 8.015625 21.59375 C7.99532227 23.4200293 7.99532227 23.4200293 7.97460938 25.28320312 C7.93931761 28.28300345 7.89000981 31.28189975 7.828125 34.28125 C4.858125 34.28125 1.888125 34.28125 -1.171875 34.28125 C-1.501875 33.62125 -1.831875 32.96125 -2.171875 32.28125 C-2.81125 32.77625 -3.450625 33.27125 -4.109375 33.78125 C-8.22098881 35.79510166 -11.66736847 35.89550089 -16.171875 35.28125 C-19.046875 33.96875 -19.046875 33.96875 -21.171875 32.28125 C-22.0690625 31.6625 -22.0690625 31.6625 -22.984375 31.03125 C-25.0422531 27.99858753 -24.70570745 25.84013297 -24.171875 22.28125 C-21.82114842 18.13830281 -19.22507567 15.73829935 -14.859375 13.84375 C-10.57822259 13.19069285 -6.49064386 13.10497372 -2.171875 13.28125 C-2.831875 11.63125 -3.491875 9.98125 -4.171875 8.28125 C-8.41667964 7.94832415 -10.52730125 7.84239128 -14.109375 10.28125 C-14.79 10.94125 -15.470625 11.60125 -16.171875 12.28125 C-18.151875 11.29125 -20.131875 10.30125 -22.171875 9.28125 C-21.87728491 5.74616897 -21.42306087 4.51921556 -18.796875 2.03125 C-13.36554722 -1.58963519 -6.19762744 -2.0510134 0 0 Z " fill="#0A0B1B" transform="translate(146.171875,21.71875)"/>
<path d="M0 0 C4.05790247 1.9933556 6.66502253 4.14885217 9 8 C9.34057617 10.93261719 9.34057617 10.93261719 9.29296875 14.296875 C9.28330078 15.50214844 9.27363281 16.70742188 9.26367188 17.94921875 C9.23853516 19.20347656 9.21339844 20.45773438 9.1875 21.75 C9.16719727 23.65458984 9.16719727 23.65458984 9.14648438 25.59765625 C9.1111324 28.73219844 9.06178248 31.86588545 9 35 C6.03 35 3.06 35 0 35 C0 34.34 0 33.68 0 33 C-0.804375 33.495 -1.60875 33.99 -2.4375 34.5 C-6.81334806 36.34246234 -10.31633582 36.7778228 -15 36 C-20.46341463 33.07317073 -20.46341463 33.07317073 -22 30 C-22.57791538 22.9494324 -22.57791538 22.9494324 -20.25 19.125 C-16.14225602 15.24546402 -12.85561909 14.71133715 -7.25 14.375 C-6.07953125 14.30023438 -4.9090625 14.22546875 -3.703125 14.1484375 C-2.81109375 14.09945312 -1.9190625 14.05046875 -1 14 C-1.66 12.35 -2.32 10.7 -3 9 C-6.37464024 8.7496423 -6.37464024 8.7496423 -10 9 C-11.0194119 9.98020375 -12.02246356 10.97803008 -13 12 C-16.01071639 11.84946418 -17.52068815 11.41319987 -19.8125 9.4375 C-20.4003125 8.7259375 -20.4003125 8.7259375 -21 8 C-14.8579954 0.15188301 -10.06911433 -1.10531108 0 0 Z " fill="#070818" transform="translate(262,21)"/>
<path d="M0 0 C4.51220275 2.25610137 6.78439754 4.51487291 9 9 C9.34057617 11.9543457 9.34057617 11.9543457 9.29296875 15.17578125 C9.2784668 16.91118164 9.2784668 16.91118164 9.26367188 18.68164062 C9.23853516 19.87982422 9.21339844 21.07800781 9.1875 22.3125 C9.16719727 24.1387793 9.16719727 24.1387793 9.14648438 26.00195312 C9.11119261 29.00175345 9.06188481 32.00064975 9 35 C5.7 35 2.4 35 -1 35 C-1.01458252 34.28344238 -1.02916504 33.56688477 -1.04418945 32.82861328 C-1.11849 29.59352017 -1.21520861 26.35947981 -1.3125 23.125 C-1.33505859 21.99707031 -1.35761719 20.86914062 -1.38085938 19.70703125 C-1.4340332 18.09248047 -1.4340332 18.09248047 -1.48828125 16.4453125 C-1.51446533 15.45031738 -1.54064941 14.45532227 -1.56762695 13.43017578 C-1.71031006 12.62821777 -1.85299316 11.82625977 -2 11 C-4.837578 8.64985842 -4.837578 8.64985842 -8.125 9.3125 C-10.88086422 9.70644321 -10.88086422 9.70644321 -12 11 C-12.15764405 12.77869726 -12.25100677 14.56318476 -12.31640625 16.34765625 C-12.35830078 17.42724609 -12.40019531 18.50683594 -12.44335938 19.61914062 C-12.48267578 20.75544922 -12.52199219 21.89175781 -12.5625 23.0625 C-12.60568359 24.20267578 -12.64886719 25.34285156 -12.69335938 26.51757812 C-12.79982839 29.34492195 -12.90184207 32.17235738 -13 35 C-16.3 35 -19.6 35 -23 35 C-23 23.78 -23 12.56 -23 1 C-20.03 1 -17.06 1 -14 1 C-13.67 1.66 -13.34 2.32 -13 3 C-12.525625 2.505 -12.05125 2.01 -11.5625 1.5 C-7.75348707 -0.7296661 -4.31103669 -0.67359948 0 0 Z " fill="#08091A" transform="translate(301,21)"/>
<path d="M0 0 C4.1003136 2.0501568 6.37692101 3.72795981 8 8 C8.22705078 10.93261719 8.22705078 10.93261719 8.1953125 14.296875 C8.18886719 15.50214844 8.18242187 16.70742188 8.17578125 17.94921875 C8.15902344 19.20347656 8.14226562 20.45773438 8.125 21.75 C8.11597656 23.01972656 8.10695312 24.28945313 8.09765625 25.59765625 C8.07409005 28.73196093 8.04118832 31.86588541 8 35 C5.03 35 2.06 35 -1 35 C-1.01458252 34.31897217 -1.02916504 33.63794434 -1.04418945 32.9362793 C-1.11862696 29.85277785 -1.21530083 26.77036433 -1.3125 23.6875 C-1.33505859 22.61564453 -1.35761719 21.54378906 -1.38085938 20.43945312 C-1.4340332 18.89741211 -1.4340332 18.89741211 -1.48828125 17.32421875 C-1.51446533 16.37635498 -1.54064941 15.42849121 -1.56762695 14.4519043 C-2.06831826 11.61258028 -2.69754574 10.68782045 -5 9 C-7.81375005 8.57793749 -9.29789594 8.48532068 -11.62426758 10.19067383 C-13.47606562 12.62610866 -13.42772405 14.28361067 -13.51171875 17.32421875 C-13.54716797 18.35224609 -13.58261719 19.38027344 -13.61914062 20.43945312 C-13.65297852 22.04723633 -13.65297852 22.04723633 -13.6875 23.6875 C-13.72166016 24.77095703 -13.75582031 25.85441406 -13.79101562 26.97070312 C-13.8735456 29.6470322 -13.94267937 32.32303159 -14 35 C-16.97 35 -19.94 35 -23 35 C-23 23.78 -23 12.56 -23 1 C-20.36 1 -17.72 1 -15 1 C-14.67 1.66 -14.34 2.32 -14 3 C-13.44054687 2.51402344 -12.88109375 2.02804688 -12.3046875 1.52734375 C-8.4343527 -1.03757304 -4.48284629 -0.64343693 0 0 Z " fill="#020314" transform="translate(184,21)"/>
<path d="M0 0 C1.20462891 -0.02126953 1.20462891 -0.02126953 2.43359375 -0.04296875 C4.5625 0.1875 4.5625 0.1875 6.5625 2.1875 C6.81646729 4.07823181 6.81646729 4.07823181 6.82128906 6.40600586 C6.82759338 7.27708481 6.83389771 8.14816376 6.84039307 9.04563904 C6.8363446 9.98835159 6.83229614 10.93106415 6.828125 11.90234375 C6.83003845 12.86902481 6.8319519 13.83570587 6.83392334 14.8316803 C6.83528592 16.87859354 6.83158443 18.92551541 6.82324219 20.97241211 C6.81255534 24.10875866 6.82312912 27.24453087 6.8359375 30.38085938 C6.83461569 32.36718877 6.83205285 34.3535178 6.828125 36.33984375 C6.83217346 37.28053207 6.83622192 38.2212204 6.84039307 39.19041443 C6.83408875 40.06464554 6.82778442 40.93887665 6.82128906 41.83959961 C6.81890228 42.99304115 6.81890228 42.99304115 6.81646729 44.16978455 C6.5625 46.1875 6.5625 46.1875 4.5625 49.1875 C2.6875 49.55078125 2.6875 49.55078125 0.5625 49.5 C-0.13875 49.49613281 -0.84 49.49226563 -1.5625 49.48828125 C-3.4375 49.1875 -3.4375 49.1875 -5.4375 47.1875 C-5.68473816 45.2073822 -5.68473816 45.2073822 -5.68041992 42.75366211 C-5.68349655 41.83608627 -5.68657318 40.91851044 -5.68974304 39.97312927 C-5.68255753 38.98039505 -5.67537201 37.98766083 -5.66796875 36.96484375 C-5.66751053 35.94902725 -5.66705231 34.93321075 -5.6665802 33.88661194 C-5.66355596 31.73714023 -5.65566456 29.58767075 -5.64331055 27.43823242 C-5.62505624 24.13517558 -5.6228008 20.83239888 -5.62304688 17.52929688 C-5.61813179 15.44531006 -5.61230351 13.36132515 -5.60546875 11.27734375 C-5.60379951 9.78520607 -5.60379951 9.78520607 -5.60209656 8.26292419 C-5.59571671 7.34850052 -5.58933685 6.43407684 -5.58276367 5.49194336 C-5.57895187 4.68301132 -5.57514008 3.87407928 -5.57121277 3.04063416 C-5.30860431 -0.59887391 -3.14514816 0.02516119 0 0 Z " fill="#6662C8" transform="translate(13.4375,8.8125)"/>
<path d="M0 0 C0.8146875 0.00257812 1.629375 0.00515625 2.46875 0.0078125 C3.2834375 0.00523438 4.098125 0.00265625 4.9375 0 C6.96875 0.1328125 6.96875 0.1328125 7.96875 1.1328125 C8.06697744 2.60086542 8.0967337 4.0735871 8.09814453 5.54492188 C8.10129669 6.48259399 8.10444885 7.42026611 8.10769653 8.38635254 C8.1056723 9.40612183 8.10364807 10.42589111 8.1015625 11.4765625 C8.10251923 12.51598999 8.10347595 13.55541748 8.10446167 14.62634277 C8.10514363 16.82885804 8.10328827 19.03137529 8.09912109 21.23388672 C8.09377308 24.61820969 8.09906559 28.00239994 8.10546875 31.38671875 C8.10480797 33.52083363 8.10352681 35.65494842 8.1015625 37.7890625 C8.10358673 38.80883179 8.10561096 39.82860107 8.10769653 40.87927246 C8.10454437 41.81694458 8.10139221 42.7546167 8.09814453 43.72070312 C8.09695114 44.96527283 8.09695114 44.96527283 8.09573364 46.23498535 C7.96875 48.1328125 7.96875 48.1328125 6.96875 49.1328125 C5.47136876 49.2307182 3.96932108 49.26256114 2.46875 49.2578125 C1.6540625 49.26039062 0.839375 49.26296875 0 49.265625 C-2.03125 49.1328125 -2.03125 49.1328125 -3.03125 48.1328125 C-3.12947744 46.66475958 -3.1592337 45.1920379 -3.16064453 43.72070312 C-3.16537277 42.31419495 -3.16537277 42.31419495 -3.17019653 40.87927246 C-3.1681723 39.85950317 -3.16614807 38.83973389 -3.1640625 37.7890625 C-3.16501923 36.74963501 -3.16597595 35.71020752 -3.16696167 34.63928223 C-3.16764363 32.43676696 -3.16578827 30.23424971 -3.16162109 28.03173828 C-3.15627308 24.64741531 -3.16156559 21.26322506 -3.16796875 17.87890625 C-3.16730797 15.74479137 -3.16602681 13.61067658 -3.1640625 11.4765625 C-3.16608673 10.45679321 -3.16811096 9.43702393 -3.17019653 8.38635254 C-3.16704437 7.44868042 -3.16389221 6.5110083 -3.16064453 5.54492188 C-3.15984894 4.71520874 -3.15905334 3.88549561 -3.15823364 3.03063965 C-2.97990686 0.36546645 -2.66251047 0.17408722 0 0 Z " fill="#8A87D5" transform="translate(29.03125,8.8671875)"/>
<path d="M0 0 C0.8146875 0.00257812 1.629375 0.00515625 2.46875 0.0078125 C3.2834375 0.00523438 4.098125 0.00265625 4.9375 0 C6.96875 0.1328125 6.96875 0.1328125 7.96875 1.1328125 C8.07206927 2.56472111 8.10724886 4.00164053 8.11401367 5.43725586 C8.12358345 6.80889137 8.12358345 6.80889137 8.13334656 8.20823669 C8.13445938 9.20299515 8.1355722 10.1977536 8.13671875 11.22265625 C8.14004715 12.23751602 8.14337555 13.25237579 8.14680481 14.29798889 C8.1518785 16.4492243 8.154213 18.6004676 8.15405273 20.75170898 C8.15623834 24.05270286 8.17438707 27.35336225 8.19335938 30.65429688 C8.19629331 32.73958218 8.1982781 34.82486909 8.19921875 36.91015625 C8.20640427 37.90289047 8.21358978 38.89562469 8.22099304 39.91844177 C8.21791641 40.83601761 8.21483978 41.75359344 8.21166992 42.69897461 C8.21309494 43.50870224 8.21451996 44.31842987 8.21598816 45.1526947 C7.96875 47.1328125 7.96875 47.1328125 5.96875 49.1328125 C3.25420044 49.46033484 0.71644241 49.263655 -2.03125 49.1328125 C-3.61806989 47.54599261 -3.15853536 45.92032904 -3.16064453 43.72070312 C-3.16537277 42.31419495 -3.16537277 42.31419495 -3.17019653 40.87927246 C-3.1681723 39.85950317 -3.16614807 38.83973389 -3.1640625 37.7890625 C-3.16501923 36.74963501 -3.16597595 35.71020752 -3.16696167 34.63928223 C-3.16764363 32.43676696 -3.16578827 30.23424971 -3.16162109 28.03173828 C-3.15627308 24.64741531 -3.16156559 21.26322506 -3.16796875 17.87890625 C-3.16730797 15.74479137 -3.16602681 13.61067658 -3.1640625 11.4765625 C-3.16608673 10.45679321 -3.16811096 9.43702393 -3.17019653 8.38635254 C-3.16704437 7.44868042 -3.16389221 6.5110083 -3.16064453 5.54492188 C-3.15984894 4.71520874 -3.15905334 3.88549561 -3.15823364 3.03063965 C-2.97990686 0.36546645 -2.66251047 0.17408722 0 0 Z " fill="#B0AEE2" transform="translate(47.03125,8.8671875)"/>
<path d="M0 0 C3.61932815 2.61823738 4.82190418 4.02047301 5.625 8.4375 C4.81458415 13.05687034 3.56352884 14.95615245 0 18 C-3.78869562 18.91528884 -6.96727569 18.55608232 -10.4375 16.6875 C-12.7827717 14.15460657 -12.99800385 12.02155837 -13.3125 8.625 C-12.94884973 4.40665686 -11.95115008 2.95115008 -9 0 C-5.77509551 -1.61245225 -3.43772273 -0.81573082 0 0 Z " fill="#F4F4F5" transform="translate(221,30)"/>
<path d="M0 0 C1.8871875 0.061875 1.8871875 0.061875 3.8125 0.125 C3.48622714 3.14302393 3.20168764 4.72191281 1.0625 6.9375 C-1.60965465 8.34780384 -3.20589446 8.51731652 -6.1875 8.125 C-6.8475 7.465 -7.5075 6.805 -8.1875 6.125 C-8 4.125 -8 4.125 -7.1875 2.125 C-4.09861478 0.06574319 -3.47814073 -0.1140374 0 0 Z " fill="#F2F2F3" transform="translate(140.1875,41.875)"/>
<path d="M0 0 C-0.3125 2.875 -0.3125 2.875 -1 6 C-4.44107266 8.29404844 -5.96839809 8.26293056 -10 8 C-11 7 -11 7 -11.0625 4.4375 C-11.041875 3.633125 -11.02125 2.82875 -11 2 C-7.17679443 0.57741188 -4.08718695 -0.24042276 0 0 Z " fill="#F3F3F4" transform="translate(261,42)"/>
</svg>
