<svg width="113" height="25" viewBox="0 0 113 25" fill="none" xmlns="http://www.w3.org/2000/svg">
<path fill-rule="evenodd" clip-rule="evenodd" d="M4.8 24.224V18.88L6.72 16.768L11.168 24.224H16.608L10.304 13.792L16.64 6.752H10.72L4.8 13.056V0H0V24.224H4.8ZM24.16 24.608C26.336 24.608 28.0853 23.936 29.408 22.592V24.224H33.888V12.704C33.888 11.4453 33.5733 10.3413 32.944 9.392C32.3147 8.44267 31.4347 7.70133 30.304 7.168C29.1733 6.63467 27.872 6.368 26.4 6.368C24.544 6.368 22.9173 6.79467 21.52 7.648C20.1227 8.50133 19.168 9.65333 18.656 11.104L22.496 12.928C22.7947 12.16 23.2693 11.5413 23.92 11.072C24.5707 10.6027 25.3227 10.368 26.176 10.368C27.072 10.368 27.7813 10.592 28.304 11.04C28.8267 11.488 29.088 12.0427 29.088 12.704V13.184L24.256 13.952C22.1653 14.2933 20.608 14.944 19.584 15.904C18.56 16.864 18.048 18.08 18.048 19.552C18.048 21.1307 18.5973 22.368 19.696 23.264C20.7947 24.16 22.2827 24.608 24.16 24.608ZM23.616 20.64C24.0213 20.9387 24.5227 21.088 25.12 21.088C26.3147 21.088 27.2747 20.7147 28 19.968C28.7253 19.2213 29.088 18.3147 29.088 17.248V16.704L25.12 17.408C24.4373 17.536 23.9147 17.7547 23.552 18.064C23.1893 18.3733 23.008 18.816 23.008 19.392C23.008 19.9253 23.2107 20.3413 23.616 20.64ZM42.208 24.224V14.016C42.208 13.0133 42.5067 12.208 43.104 11.6C43.7013 10.992 44.4693 10.688 45.408 10.688C46.3467 10.688 47.1147 10.992 47.712 11.6C48.3093 12.208 48.608 13.0133 48.608 14.016V24.224H53.408V12.992C53.408 11.6693 53.1307 10.512 52.576 9.52C52.0213 8.528 51.248 7.75467 50.256 7.2C49.264 6.64533 48.1067 6.368 46.784 6.368C45.6747 6.368 44.6933 6.576 43.84 6.992C42.9867 7.408 42.336 8.04267 41.888 8.896V6.752H37.408V24.224H42.208ZM70.944 23.392C69.6 24.2027 68.0747 24.608 66.368 24.608C65.3013 24.608 64.304 24.432 63.376 24.08C62.448 23.728 61.6747 23.2213 61.056 22.56V24.224H56.576V0H61.376V8.224C62.6133 6.98667 64.288 6.368 66.4 6.368C68.064 6.368 69.568 6.77333 70.912 7.584C72.256 8.39467 73.3227 9.488 74.112 10.864C74.9013 12.24 75.296 13.7813 75.296 15.488C75.296 17.1733 74.9067 18.7093 74.128 20.096C73.3493 21.4827 72.288 22.5813 70.944 23.392ZM65.792 20.288C64.4907 20.288 63.4293 19.8453 62.608 18.96C61.7867 18.0747 61.376 16.9173 61.376 15.488C61.376 14.08 61.7867 12.928 62.608 12.032C63.4293 11.136 64.4907 10.688 65.792 10.688C67.1147 10.688 68.2027 11.1413 69.056 12.048C69.9093 12.9547 70.336 14.1013 70.336 15.488C70.336 16.896 69.9093 18.048 69.056 18.944C68.2027 19.84 67.1147 20.288 65.792 20.288ZM88.768 22.592C87.4453 23.936 85.696 24.608 83.52 24.608C81.6427 24.608 80.1547 24.16 79.056 23.264C77.9573 22.368 77.408 21.1307 77.408 19.552C77.408 18.08 77.92 16.864 78.944 15.904C79.968 14.944 81.5253 14.2933 83.616 13.952L88.448 13.184V12.704C88.448 12.0427 88.1867 11.488 87.664 11.04C87.1413 10.592 86.432 10.368 85.536 10.368C84.6827 10.368 83.9307 10.6027 83.28 11.072C82.6293 11.5413 82.1547 12.16 81.856 12.928L78.016 11.104C78.528 9.65333 79.4827 8.50133 80.88 7.648C82.2773 6.79467 83.904 6.368 85.76 6.368C87.232 6.368 88.5333 6.63467 89.664 7.168C90.7947 7.70133 91.6747 8.44267 92.304 9.392C92.9333 10.3413 93.248 11.4453 93.248 12.704V24.224H88.768V22.592ZM84.48 21.088C83.8827 21.088 83.3813 20.9387 82.976 20.64C82.5707 20.3413 82.368 19.9253 82.368 19.392C82.368 18.816 82.5493 18.3733 82.912 18.064C83.2747 17.7547 83.7973 17.536 84.48 17.408L88.448 16.704V17.248C88.448 18.3147 88.0853 19.2213 87.36 19.968C86.6347 20.7147 85.6747 21.088 84.48 21.088ZM101.568 14.016V24.224H96.768V6.752H101.248V8.896C101.696 8.04267 102.347 7.408 103.2 6.992C104.053 6.576 105.035 6.368 106.144 6.368C107.467 6.368 108.624 6.64533 109.616 7.2C110.608 7.75467 111.381 8.528 111.936 9.52C112.491 10.512 112.768 11.6693 112.768 12.992V24.224H107.968V14.016C107.968 13.0133 107.669 12.208 107.072 11.6C106.475 10.992 105.707 10.688 104.768 10.688C103.829 10.688 103.061 10.992 102.464 11.6C101.867 12.208 101.568 13.0133 101.568 14.016Z" fill="#000112"/>
</svg>
