<svg width="114" height="26" viewBox="0 0 114 26" fill="none" xmlns="http://www.w3.org/2000/svg">
<path fill-rule="evenodd" clip-rule="evenodd" d="M5.55977 25V19.656L7.47977 17.544L11.9278 25H17.3678L11.0638 14.568L17.3998 7.528H11.4798L5.55977 13.832V0.776001H0.759766V25H5.55977ZM24.9198 25.384C27.0958 25.384 28.8451 24.712 30.1678 23.368V25H34.6478V13.48C34.6478 12.2213 34.3331 11.1173 33.7038 10.168C33.0744 9.21867 32.1944 8.47733 31.0638 7.944C29.9331 7.41067 28.6318 7.144 27.1598 7.144C25.3038 7.144 23.6771 7.57067 22.2798 8.424C20.8824 9.27733 19.9278 10.4293 19.4158 11.88L23.2558 13.704C23.5544 12.936 24.0291 12.3173 24.6798 11.848C25.3304 11.3787 26.0824 11.144 26.9358 11.144C27.8318 11.144 28.5411 11.368 29.0638 11.816C29.5864 12.264 29.8478 12.8187 29.8478 13.48V13.96L25.0158 14.728C22.9251 15.0693 21.3678 15.72 20.3438 16.68C19.3198 17.64 18.8078 18.856 18.8078 20.328C18.8078 21.9067 19.3571 23.144 20.4558 24.04C21.5544 24.936 23.0424 25.384 24.9198 25.384ZM24.3758 21.416C24.7811 21.7147 25.2824 21.864 25.8798 21.864C27.0744 21.864 28.0344 21.4907 28.7598 20.744C29.4851 19.9973 29.8478 19.0907 29.8478 18.024V17.48L25.8798 18.184C25.1971 18.312 24.6744 18.5307 24.3118 18.84C23.9491 19.1493 23.7678 19.592 23.7678 20.168C23.7678 20.7013 23.9704 21.1173 24.3758 21.416ZM42.9678 25V14.792C42.9678 13.7893 43.2664 12.984 43.8638 12.376C44.4611 11.768 45.2291 11.464 46.1678 11.464C47.1064 11.464 47.8744 11.768 48.4718 12.376C49.0691 12.984 49.3678 13.7893 49.3678 14.792V25H54.1678V13.768C54.1678 12.4453 53.8904 11.288 53.3358 10.296C52.7811 9.304 52.0078 8.53067 51.0158 7.976C50.0238 7.42133 48.8664 7.144 47.5438 7.144C46.4344 7.144 45.4531 7.352 44.5998 7.768C43.7464 8.184 43.0958 8.81867 42.6478 9.672V7.528H38.1678V25H42.9678ZM71.7038 24.168C70.3598 24.9787 68.8344 25.384 67.1278 25.384C66.0611 25.384 65.0638 25.208 64.1358 24.856C63.2078 24.504 62.4344 23.9973 61.8158 23.336V25H57.3358V0.776001H62.1358V9C63.3731 7.76267 65.0478 7.144 67.1598 7.144C68.8238 7.144 70.3278 7.54933 71.6718 8.36C73.0158 9.17067 74.0824 10.264 74.8718 11.64C75.6611 13.016 76.0558 14.5573 76.0558 16.264C76.0558 17.9493 75.6664 19.4853 74.8878 20.872C74.1091 22.2587 73.0478 23.3573 71.7038 24.168ZM66.5518 21.064C65.2504 21.064 64.1891 20.6213 63.3678 19.736C62.5464 18.8507 62.1358 17.6933 62.1358 16.264C62.1358 14.856 62.5464 13.704 63.3678 12.808C64.1891 11.912 65.2504 11.464 66.5518 11.464C67.8744 11.464 68.9624 11.9173 69.8158 12.824C70.6691 13.7307 71.0958 14.8773 71.0958 16.264C71.0958 17.672 70.6691 18.824 69.8158 19.72C68.9624 20.616 67.8744 21.064 66.5518 21.064ZM89.5278 23.368C88.2051 24.712 86.4558 25.384 84.2798 25.384C82.4024 25.384 80.9144 24.936 79.8158 24.04C78.7171 23.144 78.1678 21.9067 78.1678 20.328C78.1678 18.856 78.6798 17.64 79.7038 16.68C80.7278 15.72 82.2851 15.0693 84.3758 14.728L89.2078 13.96V13.48C89.2078 12.8187 88.9464 12.264 88.4238 11.816C87.9011 11.368 87.1918 11.144 86.2958 11.144C85.4424 11.144 84.6904 11.3787 84.0398 11.848C83.3891 12.3173 82.9144 12.936 82.6158 13.704L78.7758 11.88C79.2878 10.4293 80.2424 9.27733 81.6398 8.424C83.0371 7.57067 84.6638 7.144 86.5198 7.144C87.9918 7.144 89.2931 7.41067 90.4238 7.944C91.5544 8.47733 92.4344 9.21867 93.0638 10.168C93.6931 11.1173 94.0078 12.2213 94.0078 13.48V25H89.5278V23.368ZM85.2398 21.864C84.6424 21.864 84.1411 21.7147 83.7358 21.416C83.3304 21.1173 83.1278 20.7013 83.1278 20.168C83.1278 19.592 83.3091 19.1493 83.6718 18.84C84.0344 18.5307 84.5571 18.312 85.2398 18.184L89.2078 17.48V18.024C89.2078 19.0907 88.8451 19.9973 88.1198 20.744C87.3944 21.4907 86.4344 21.864 85.2398 21.864ZM102.328 14.792V25H97.5278V7.528H102.008V9.672C102.456 8.81867 103.106 8.184 103.96 7.768C104.813 7.352 105.794 7.144 106.904 7.144C108.226 7.144 109.384 7.42133 110.376 7.976C111.368 8.53067 112.141 9.304 112.696 10.296C113.25 11.288 113.528 12.4453 113.528 13.768V25H108.728V14.792C108.728 13.7893 108.429 12.984 107.832 12.376C107.234 11.768 106.466 11.464 105.528 11.464C104.589 11.464 103.821 11.768 103.224 12.376C102.626 12.984 102.328 13.7893 102.328 14.792Z" fill="white"/>
</svg>
